<svg width="44" height="20" xmlns="http://www.w3.org/2000/svg">

 <g>
  <title>background</title>
  <rect fill="none" id="canvas_background" height="22" width="46" y="-1" x="-1"/>
 </g>
 <g>
  <title>Layer 1</title>
  <path id="svg_1" fill="#9FA2B4" d="m1,17.7778c0,1.2222 0.9,2.2222 2,2.2222l8,0c1.1,0 2,-1 2,-2.2222l0,-11.11113c0,-1.22223 -0.9,-2.22223 -2,-2.22223l-8,0c-1.1,0 -2,1 -2,2.22223l0,11.11113zm12,-16.66669l-2.5,0l-0.71,-0.78889c-0.18,-0.2 -0.44,-0.32222 -0.7,-0.32222l-4.18,0c-0.26,0 -0.52,0.12222 -0.7,0.32222l-0.71,0.78889l-2.5,0c-0.55,0 -1,0.5 -1,1.11111c0,0.61111 0.45,1.11111 1,1.11111l12,0c0.55,0 1,-0.5 1,-1.11111c0,-0.61111 -0.45,-1.11111 -1,-1.11111z"/>
  <path stroke="null" id="svg_2" fill="#9FA2B4" d="m1.049834,17.7778c0,1.2222 0.94485,2.2222 2.099668,2.2222l8.398671,0c1.154817,0 2.099668,-1 2.099668,-2.2222l0,-11.11113c0,-1.22223 -0.94485,-2.22223 -2.099668,-2.22223l-8.398671,0c-1.154817,0 -2.099668,1 -2.099668,2.22223l0,11.11113zm12.598006,-16.66669l-2.624585,0l-0.745382,-0.78889c-0.18897,-0.2 -0.461927,-0.32222 -0.734884,-0.32222l-4.388305,0c-0.272957,0 -0.545914,0.12222 -0.734884,0.32222l-0.745382,0.78889l-2.624585,0c-0.577409,0 -1.049834,0.5 -1.049834,1.11111c0,0.61111 0.472425,1.11111 1.049834,1.11111l12.598006,0c0.577409,0 1.049834,-0.5 1.049834,-1.11111c0,-0.61111 -0.472425,-1.11111 -1.049834,-1.11111z"/>
  <path stroke="null" id="svg_3" fill="#ff0000" d="m28.956776,18.010358c0,1.2222 0.94485,2.2222 2.09967,2.2222l8.39867,0c1.15482,0 2.09967,-1 2.09967,-2.2222l0,-11.11113c0,-1.22223 -0.94485,-2.22223 -2.09967,-2.22223l-8.39867,0c-1.15482,0 -2.09967,1 -2.09967,2.22223l0,11.11113zm12.59801,-16.66669l-2.62458,0l-0.74539,-0.78889c-0.18897,-0.2 -0.46192,-0.32222 -0.73488,-0.32222l-4.38831,0c-0.27295,0 -0.54591,0.12222 -0.73488,0.32222l-0.74538,0.78889l-2.62459,0c-0.5774,0 -1.04983,0.5 -1.04983,1.11111c0,0.61111 0.47243,1.11111 1.04983,1.11111l12.59801,0c0.57741,0 1.04983,-0.5 1.04983,-1.11111c0,-0.61111 -0.47242,-1.11111 -1.04983,-1.11111z"/>
 </g>
</svg>